<svg
  xmlns="http://www.w3.org/2000/svg"
  viewBox="0 0 76 22"
  class="icon icon__click"
>
  <path
    fill-rule="evenodd"
    clip-rule="evenodd"
    d="M10.6827 21.8697C10.1622 21.8662 9.64776 21.7869 9.15088 21.6315C8.60726 21.462 8.08175 21.2352 7.58078 20.9572C6.89812 20.6004 6.24447 20.1843 5.62971 19.7149C5.07489 19.2732 4.55245 18.7924 4.06342 18.2754C3.40025 17.5991 2.78141 16.9091 2.27245 16.2727C1.71017 15.5984 1.22437 14.859 0.82445 14.0701L0.789232 13.9994V13.9974L0.781941 13.9798V13.9717L0.7432 13.8868L0.74128 13.8808L0.73723 13.8752L0.700596 13.7921L0.696521 13.7824V13.7784L0.667343 13.7173L0.66003 13.6976L0.654012 13.682L0.648257 13.6698V13.6678L0.619346 13.6029L0.617429 13.5952L0.609421 13.587L0.574778 13.5064L0.568877 13.4947L0.536176 13.412L0.534259 13.408L0.532342 13.4019L0.466387 13.2343V13.2324L0.462597 13.2228L0.433829 13.1454L0.431912 13.1379L0.427858 13.1299C0.419851 13.1062 0.410597 13.0804 0.402733 13.0567V13.0512L0.396694 13.0371C0.387152 13.0079 0.379429 12.986 0.371997 12.9642V12.9602L0.365957 12.9426L0.336779 12.8674L0.331313 12.8458L0.308153 12.7771L0.304078 12.7649L0.302161 12.7555C0.292355 12.7296 0.286865 12.706 0.280848 12.6863L0.272982 12.6645L0.255719 12.6034L0.251644 12.5918V12.5899L0.248289 12.5757L0.230451 12.5146L0.22695 12.5052L0.225034 12.4889C0.21717 12.4657 0.211152 12.446 0.207628 12.4258L0.199788 12.4026C0.195856 12.3824 0.189815 12.3612 0.184493 12.3375L0.178449 12.3159V12.3097C0.174661 12.2942 0.16862 12.2724 0.163154 12.2487L0.155289 12.2189C0.151237 12.1991 0.147308 12.1797 0.141962 12.1558L0.139803 12.1422L0.135893 12.1266C0.131961 12.1069 0.127888 12.0871 0.122566 12.0674L0.11849 12.0376C0.116572 12.024 0.112736 12.0099 0.110482 11.9943V11.9787L0.10516 11.9487V11.9446L0.0971518 11.8992C0.0933638 11.8856 0.0913963 11.872 0.0892865 11.8579L0.0818566 11.813C0.0799386 11.7988 0.0779218 11.7851 0.0759558 11.775C0.0740379 11.7635 0.0720253 11.7417 0.0679735 11.724L0.0641872 11.6922C0.0627487 11.6726 0.0586968 11.655 0.056611 11.6353L0.048603 11.6055V11.5999C0.044815 11.5783 0.0448161 11.5606 0.0413158 11.5424C0.0413158 11.5328 0.0393959 11.5227 0.0375258 11.5131V11.5091C0.0353681 11.4913 0.033452 11.4716 0.0314861 11.4541C0.0314861 11.4418 0.0295655 11.4324 0.0295655 11.4202V11.4183C0.0274077 11.4027 0.0254902 11.3869 0.0254902 11.3713C0.0254902 11.3572 0.0219892 11.3436 0.0219892 11.33C0.0219892 11.3157 0.0200729 11.3021 0.0182029 11.2885C0.0182029 11.2723 0.0160445 11.2568 0.0160445 11.2413C0.0160445 11.2254 0.0160456 11.2154 0.0141276 11.2038C0.0122096 11.1916 0.014125 11.1721 0.012207 11.1562V11.1542C0.012207 11.1406 0.012207 11.1284 0.012207 11.115C0.012207 11.1007 0.012207 11.093 0.012207 11.083V11.0694C0.012207 11.0538 0.012207 11.0396 0.012207 11.026C0.012207 11.0104 0.012207 11.0024 0.012207 10.9907V10.9018C0.012207 10.8842 0.012207 10.8665 0.012207 10.8467C0.012207 10.8347 0.012207 10.8211 0.012207 10.809C0.012207 10.7974 0.012207 10.7776 0.012207 10.762C0.012207 10.7519 0.012207 10.7439 0.012207 10.7343V10.7205C0.012207 10.7005 0.0122096 10.6828 0.0141276 10.6652C0.0141276 10.6556 0.0141276 10.6454 0.0141276 10.6338C0.0141276 10.6177 0.0160452 10.5999 0.0182029 10.5782C0.0182029 10.5687 0.0182019 10.5586 0.0201198 10.5491C0.0201198 10.5294 0.0236194 10.5112 0.0255853 10.4915V10.4602C0.0255853 10.4404 0.0275029 10.423 0.0296606 10.4032L0.0335932 10.3735V10.3673C0.0335932 10.3497 0.0376682 10.332 0.0394903 10.3104C0.0394903 10.3022 0.039491 10.2968 0.0429913 10.2886V10.277C0.0449093 10.2573 0.0469235 10.2371 0.0509992 10.2195L0.0547892 10.1922C0.0567071 10.1724 0.0608055 10.1508 0.0627715 10.1311L0.0661517 10.1095V10.1055C0.0702034 10.0857 0.0721703 10.066 0.0761022 10.0424L0.0819993 10.0146C0.0854996 9.99288 0.0894325 9.97126 0.0935082 9.94953L0.0972945 9.93179V9.92206C0.10137 9.90045 0.105303 9.87669 0.108803 9.8551L0.112879 9.83536V9.8334C0.118633 9.81164 0.122709 9.78791 0.128031 9.76615V9.75813L0.129948 9.74454C0.134024 9.72281 0.139898 9.7012 0.145796 9.67529L0.151287 9.65584C0.155338 9.63411 0.161235 9.6102 0.168667 9.58301L0.170588 9.57101L0.172505 9.56329C0.180512 9.53767 0.186554 9.51191 0.193986 9.48401L0.197919 9.46856C0.205758 9.44065 0.211248 9.41748 0.219232 9.39374L0.223164 9.37556C0.229062 9.35397 0.236635 9.32649 0.244499 9.30087V9.29672L0.248432 9.28313C0.25783 9.25753 0.265837 9.22977 0.273125 9.20645L0.2772 9.19244C0.28504 9.16667 0.294462 9.13935 0.304268 9.10544L0.306426 9.10002V9.09806C0.31568 9.06829 0.32551 9.03896 0.335052 9.01107L0.339127 8.99903C0.348957 8.97185 0.358212 8.94411 0.368306 8.9182L0.372238 8.90691C0.383602 8.87285 0.393433 8.84768 0.402975 8.82177L0.406761 8.81177C0.416303 8.78459 0.428098 8.75481 0.439462 8.72506L0.441621 8.71949C0.453392 8.68972 0.464899 8.66038 0.478229 8.62477L0.482019 8.61861C0.494102 8.58727 0.505465 8.55752 0.518795 8.53019L0.522728 8.52017C0.534643 8.49243 0.546006 8.46524 0.559336 8.43134L0.56538 8.42161C0.575209 8.39599 0.588659 8.36622 0.603835 8.3309L0.607885 8.32317C0.623181 8.28541 0.639054 8.25407 0.650562 8.22645C1.42416 6.53103 2.58211 5.34982 3.7019 4.20824L3.72506 4.18448C4.37658 3.5202 4.98587 2.95234 5.58533 2.44959C6.27012 1.86984 7.00078 1.34534 7.77047 0.88622C8.19789 0.626107 8.65604 0.424804 9.13401 0.286888C9.54359 0.170411 9.96696 0.111328 10.3906 0.111328C10.963 0.11519 11.5298 0.21378 12.0708 0.403053C12.5891 0.582769 13.0902 0.809243 13.5677 1.07938C14.3317 1.49728 15.0642 1.97273 15.7604 2.50065C16.4163 2.99783 17.0351 3.54409 17.6132 4.13141C18.2162 4.75421 18.7677 5.42465 19.2627 6.14031C19.7265 6.77726 20.1098 7.47131 20.4018 8.20669C20.5908 8.72147 20.7533 9.24798 20.885 9.77994C21.0008 10.2432 21.0666 10.7188 21.0805 11.1956C21.0878 11.6631 21.0338 12.1301 20.9141 12.5836C20.7746 13.1001 20.5756 13.6013 20.322 14.0701C19.9607 14.76 19.5389 15.4166 19.0597 16.0281C18.584 16.6296 18.0731 17.201 17.5321 17.7415C16.9478 18.3366 16.3309 18.9008 15.6872 19.4289C15.0125 19.9831 14.3045 20.4937 13.5677 20.9573C12.711 21.5345 11.7095 21.85 10.6829 21.8698L10.6827 21.8697ZM12.2623 19.4586C11.8329 19.7149 11.3707 19.9083 10.8875 20.0284C11.3707 19.9083 11.8329 19.7149 12.2623 19.4586ZM5.9585 18.5889C6.00297 18.6207 6.049 18.652 6.09559 18.6838C6.0455 18.6484 6.00101 18.6187 5.9585 18.5889ZM4.39221 17.2565L4.47135 17.3352L4.39221 17.2565ZM5.14813 9.63411L5.12272 9.68747V9.69304L5.10155 9.74254L5.09963 9.7487L5.07829 9.79749V9.8015L5.0571 9.85315V9.8551L5.03775 9.90817V9.91013L5.01838 9.95751V9.96523L5.00112 10.0106L4.99896 10.0166L4.98366 10.0619V10.0681C4.97777 10.0837 4.97383 10.0994 4.96837 10.115V10.1192C4.96247 10.1389 4.95645 10.1529 4.95266 10.1665L4.95099 10.1745L4.9371 10.2174L4.93519 10.2276C4.93181 10.2412 4.9279 10.2554 4.92382 10.2689V10.2791L4.91203 10.3205L4.89268 10.3321L4.89076 10.3421L4.88122 10.3754L4.8793 10.3851C4.87525 10.3992 4.87146 10.4129 4.8695 10.4269L4.86597 10.4366L4.85617 10.4861L4.85209 10.4996L4.84859 10.5233V10.5349L4.84073 10.5667V10.5728L4.83483 10.5926L4.82893 10.6178L4.82749 10.6298V10.6437C4.82557 10.6557 4.82356 10.6673 4.82145 10.6793L4.81953 10.6929L4.8156 10.7262L4.81167 10.742C4.81167 10.752 4.80975 10.7637 4.80817 10.7757V10.7915C4.80817 10.8035 4.80625 10.8132 4.80424 10.8252V10.8546C4.80424 10.8627 4.80424 10.8682 4.80232 10.8763V10.9039C4.80232 10.9099 4.80232 10.9177 4.80232 10.9258C4.80232 10.9317 4.80232 10.9353 4.80232 10.9413C4.80232 10.9474 4.80232 10.961 4.80016 10.971C4.80016 10.9746 4.80016 10.9786 4.80016 10.9828V10.9908C4.80016 10.9983 4.80016 11.0084 4.80016 11.02C4.80016 11.03 4.80016 11.0341 4.80016 11.0417C4.80016 11.0497 4.80016 11.0579 4.80016 11.0655V11.0912C4.80016 11.0992 4.80016 11.1089 4.80016 11.119V11.1876C4.80016 11.1956 4.80016 11.2038 4.80016 11.2114C4.80016 11.2193 4.80016 11.229 4.80016 11.2371V11.2588C4.80016 11.2685 4.80016 11.2765 4.80016 11.2865V11.3083C4.80016 11.3137 4.80016 11.3198 4.80016 11.326V11.3593C4.80016 11.3652 4.80016 11.3729 4.80016 11.3809V11.4263C4.80016 11.4364 4.80232 11.446 4.80421 11.4562C4.80421 11.4596 4.80421 11.4638 4.80421 11.4678V11.4758C4.80421 11.4855 4.80613 11.4955 4.80814 11.5071V11.5247L4.80982 11.5409L4.81174 11.5545L4.81366 11.5742V11.5824L4.81581 11.6V11.6197L4.81975 11.6333V11.655L4.82166 11.6671L4.82574 11.6923V11.7004L4.82924 11.714V11.722L4.83303 11.7418L4.83519 11.7553C4.83711 11.7677 4.83912 11.7793 4.84291 11.7893L4.84507 11.8048L4.85039 11.8285L4.85231 11.8402V11.8544L4.86017 11.8877L4.86422 11.9033C4.86815 11.9175 4.87168 11.9292 4.8735 11.9392L4.87757 11.9528L4.88752 11.9881L4.88944 11.9941V12.0023C4.89297 12.0119 4.89702 12.0239 4.89899 12.0356L4.90292 12.0492L4.91624 12.0906V12.0967L4.92819 12.1339V12.1461L4.93365 12.1637L4.93955 12.1834L4.94147 12.1916V12.195L4.95127 12.2248L4.9548 12.2329L4.95885 12.2445V12.2507L4.97064 12.284L4.97414 12.294L4.98805 12.3354L4.99198 12.341V12.3449L5.00728 12.3883L5.00944 12.3943L5.0267 12.4378L5.02862 12.4438L5.04417 12.4812L5.04609 12.4888V12.495C5.05214 12.5085 5.0576 12.5247 5.06547 12.5403L5.06738 12.5443L5.08479 12.5898L5.08858 12.5953L5.10205 12.6292L5.1061 12.6387L5.10989 12.6467L5.13123 12.6923V12.6962L5.13338 12.6998L5.15247 12.7473V12.7533L5.16005 12.7649L5.17589 12.8008V12.8027L5.18321 12.8206L5.1992 12.8538C5.6843 13.7174 6.28978 14.5043 6.99519 15.1902C7.55594 15.7994 8.21939 16.3042 8.95048 16.6786C9.47419 16.9921 10.0663 17.1658 10.6732 17.1855C11.244 17.1758 11.8005 17.0001 12.2762 16.6786C13.0752 16.1718 13.8137 15.5726 14.479 14.8925C15.0958 14.2989 15.6176 13.611 16.028 12.8538C16.6369 11.6924 16.521 10.8469 16.0721 9.59875C15.7086 8.76493 15.1963 8.00794 14.5622 7.36695C13.8989 6.69265 13.1408 6.12065 12.3152 5.67154C11.7795 5.34606 11.1741 5.16062 10.5514 5.13288C10.0409 5.13901 9.54012 5.28482 9.10497 5.55694C8.27916 6.0637 7.52324 6.68092 6.85796 7.38856L6.84478 7.40216C6.152 8.03512 5.57582 8.79025 5.15051 9.63425L5.14813 9.63411ZM4.15195 17.0158L4.28976 17.1559L4.15195 17.0158ZM16.2419 16.1858C16.1352 16.2999 16.0195 16.4186 15.8977 16.5448C15.7548 16.6906 15.6076 16.8344 15.4587 16.9783C15.6076 16.8344 15.7567 16.6906 15.8977 16.5448C16.0214 16.4186 16.1352 16.2999 16.2419 16.1858ZM18.4134 13.1848C18.3863 13.2383 18.3591 13.2893 18.3321 13.3427C18.1525 13.6859 17.9551 14.0191 17.7422 14.34C17.9551 14.0191 18.1525 13.6859 18.3321 13.3427C18.3591 13.2893 18.3863 13.2363 18.4134 13.1848ZM18.659 8.99557C18.7926 9.41748 18.8912 9.849 18.9531 10.2887C18.8912 9.849 18.7941 9.41547 18.659 8.99356V8.99557ZM15.4006 4.1232C15.5958 4.30304 15.7853 4.48632 15.9689 4.67362C16.4952 5.21558 16.9769 5.80102 17.41 6.4244C17.5971 6.69637 17.7654 6.96035 17.9126 7.21474C17.3674 6.29033 16.7156 5.43675 15.9689 4.67362C15.7853 4.48432 15.5958 4.30304 15.4006 4.1232ZM12.0147 1.78695C12.1503 1.85419 12.2895 1.92731 12.4399 2.01015C12.8577 2.23663 13.2676 2.48701 13.6582 2.75099C13.2676 2.48701 12.8577 2.23863 12.4399 2.01015C12.2895 1.92931 12.1503 1.85192 12.0147 1.78695ZM5.39749 12.2187C5.32775 12.0512 5.26796 11.8815 5.21984 11.7064C5.1595 11.4913 5.12679 11.2684 5.11893 11.0438C5.14012 11.45 5.23317 11.8463 5.39749 12.2167V12.2187Z"
    fill="#53B7D1"
  />
  <path
    fill-rule="evenodd"
    clip-rule="evenodd"
    d="M33.2854 15.9139C33.7651 15.9139 34.2077 15.9039 34.6121 15.8841C35.0179 15.8644 35.4339 15.823 35.8652 15.7579C36.0274 15.7207 36.1765 15.8604 36.1492 16.0301V17.4791C36.1492 17.6468 36.0486 17.7632 35.8459 17.8263C35.3508 17.9839 34.8418 18.0923 34.3274 18.1554C33.7825 18.2301 33.2311 18.2699 32.6801 18.2716C31.7923 18.2952 30.9108 18.1454 30.0812 17.8263C29.4064 17.5558 28.8128 17.1126 28.3544 16.5387C27.8901 15.9336 27.5594 15.2296 27.3877 14.4804C27.1748 13.5755 27.0743 12.6467 27.0842 11.7181V10.8288C27.0743 9.89851 27.1728 8.96997 27.3798 8.06475C27.5441 7.31533 27.8689 6.61355 28.3272 6.00664C28.7796 5.43264 29.3717 4.98909 30.0425 4.71898C30.8721 4.39949 31.7558 4.24941 32.6414 4.27331C33.6721 4.28145 34.6949 4.451 35.6755 4.77606C35.7627 4.79782 35.8418 4.84502 35.9037 4.91226C35.9442 4.97536 35.9636 5.0502 35.9597 5.1253V6.51685C35.9868 6.68439 35.8379 6.82673 35.6755 6.7874C35.3216 6.7379 34.9349 6.69869 34.5191 6.67078C34.1012 6.64303 33.6779 6.63144 33.2489 6.6333C32.7284 6.6177 32.2102 6.70412 31.7231 6.88369C31.3207 7.04321 30.9746 7.31934 30.7271 7.6783C30.4545 8.08865 30.2707 8.55192 30.1856 9.04052C30.0697 9.68147 30.0152 10.332 30.0251 10.9827V11.5823C30.0152 12.2349 30.0736 12.8855 30.1954 13.526C30.2841 14.013 30.4757 14.4744 30.7543 14.8786C31.0132 15.2314 31.3652 15.5036 31.7692 15.6615C32.2547 15.8408 32.7691 15.9255 33.2854 15.9119V15.9139ZM38.3477 4.81727C38.3477 4.61052 38.4426 4.50796 38.6323 4.50796H40.9837C41.1615 4.48234 41.3125 4.63614 41.2871 4.81727V14.8096C41.2659 15.1012 41.3317 15.391 41.4768 15.6433C41.6797 15.8544 41.9678 15.9552 42.2539 15.9139H46.7458C46.9241 15.888 47.0745 16.0416 47.0498 16.2232V17.6527C47.0498 17.899 46.9434 18.0272 46.7286 18.0408C46.0324 18.1039 45.2355 18.1593 44.3386 18.2049C43.4411 18.2503 42.5114 18.2716 41.552 18.2716C41.0436 18.2816 40.5387 18.2301 40.0438 18.1181C39.6783 18.0372 39.3362 17.8677 39.0476 17.6249C38.7887 17.3903 38.6011 17.0848 38.5085 16.7457C38.3902 16.3121 38.3363 15.8624 38.3462 15.4107L38.3477 4.81727ZM51.7542 17.7117C51.7794 17.903 51.619 18.0664 51.4314 18.0392H49.136C48.9484 18.0664 48.7878 17.903 48.8151 17.7117V4.85475C48.8151 4.62412 48.9217 4.50796 49.136 4.50796H51.4314C51.6462 4.50796 51.7542 4.62412 51.7542 4.85475V17.7117ZM60.6262 15.9139C61.1077 15.9139 61.5503 15.9039 61.9547 15.8841C62.3587 15.8644 62.7765 15.823 63.2057 15.7579C63.3681 15.7184 63.5171 15.8604 63.4899 16.0281V17.4791C63.4899 17.6468 63.3894 17.7632 63.1864 17.8263C62.6914 17.9817 62.185 18.0923 61.6706 18.1554C61.1232 18.2301 60.5721 18.268 60.0212 18.2716C59.1337 18.2952 58.2514 18.1454 57.4223 17.8263C56.747 17.5542 56.1534 17.1126 55.6971 16.5387C55.2332 15.9316 54.9026 15.2296 54.7303 14.4804C54.5174 13.5755 54.4169 12.6467 54.4268 11.7161V10.8268C54.4169 9.89852 54.5159 8.96997 54.7229 8.06475C54.8872 7.31533 55.2119 6.61355 55.6703 6.00464C56.1229 5.43064 56.7143 4.98709 57.3851 4.71898C58.2148 4.39949 59.0984 4.24755 59.984 4.27331C61.0147 4.28145 62.0399 4.451 63.0181 4.77606C63.1053 4.79782 63.1844 4.84502 63.2463 4.91226C63.287 4.97536 63.3062 5.04805 63.3027 5.1253V6.51685C63.3295 6.68439 63.1805 6.82673 63.0181 6.7874C62.6642 6.73589 62.2796 6.69869 61.8617 6.67078C61.4444 6.64303 61.0206 6.63144 60.5915 6.6333C60.0712 6.6177 59.553 6.70255 59.0657 6.88369C58.6633 7.04321 58.3192 7.31933 58.0697 7.67615C57.7971 8.08664 57.6134 8.55192 57.5286 9.04052C57.4144 9.68147 57.3604 10.332 57.3678 10.9827V11.5823C57.3604 12.2349 57.4164 12.8855 57.538 13.5238C57.6271 14.0111 57.8183 14.4744 58.0989 14.8786C58.3558 15.2314 58.7079 15.5036 59.1123 15.6615C59.5974 15.8408 60.1117 15.9255 60.6281 15.9119L60.6262 15.9139ZM75.2084 4.50796C75.2934 4.49793 75.3766 4.54327 75.4172 4.62255C75.4538 4.70695 75.4385 4.80583 75.3786 4.87494L71.3218 11.0221L75.9103 17.692C75.9608 17.7532 75.9702 17.8399 75.9395 17.913C75.9028 18.0015 75.8137 18.0528 75.7211 18.0392H73.0465C72.9361 18.0448 72.8262 18.0252 72.7257 17.9817C72.6386 17.9308 72.5648 17.8577 72.5168 17.7687L68.6298 11.7379V17.7097C68.6571 17.901 68.4947 18.0664 68.3071 18.0392H66.0115C65.8239 18.0664 65.6635 17.901 65.6907 17.7097V4.85475C65.6907 4.62255 65.7972 4.50595 66.0115 4.50595H68.3071C68.5219 4.50595 68.6298 4.62255 68.6298 4.85475V10.3063L72.252 4.73858C72.3505 4.59079 72.5129 4.50394 72.6872 4.50595L75.2084 4.50796Z"
    fill="#4D4D4D"
  />
</svg>