<svg width="472" height="175" viewBox="0 0 472 175" fill="none" xmlns="http://www.w3.org/2000/svg">
<g clip-path="url(#clip0_148_495)">
<rect y="0.5" width="174" height="174" rx="87" fill="#A6FC6F"/>
<path d="M166.959 5.68649C174.791 13.5181 178.706 17.434 180.174 21.9494C181.464 25.9213 181.464 30.1998 180.174 34.1717C178.706 38.6871 174.791 42.6029 166.959 50.4346L103.049 114.345C95.2172 122.176 91.3013 126.092 86.7859 127.559C82.814 128.85 78.5355 128.85 74.5636 127.559C70.0482 126.092 66.1324 122.176 58.3007 114.345L34.2147 90.2587C26.383 82.427 22.4672 78.5112 21.0001 73.9958C19.7095 70.0239 19.7095 65.7454 21.0001 61.7735C22.4672 57.2581 26.383 53.3422 34.2147 45.5106L98.1248 -18.3995C105.956 -26.2312 109.872 -30.147 114.388 -31.6142C118.36 -32.9047 122.638 -32.9047 126.61 -31.6142C131.125 -30.147 135.041 -26.2312 142.873 -18.3995L166.959 5.68649Z" fill="#7000FF"/>
<path d="M141.093 87.226C148.925 95.0577 152.841 98.9735 154.308 103.489C155.598 107.461 155.598 111.739 154.308 115.711C152.841 120.227 148.925 124.142 141.093 131.974L77.1831 195.884C69.3515 203.716 65.4356 207.632 60.9202 209.099C56.9483 210.389 52.6698 210.389 48.6979 209.099C44.1825 207.632 40.2667 203.716 32.435 195.884L8.34898 171.798C0.517325 163.967 -3.3985 160.051 -4.86565 155.535C-6.1562 151.563 -6.1562 147.285 -4.86565 143.313C-3.3985 138.798 0.517327 134.882 8.34898 127.05L72.2591 63.14C80.0907 55.3084 84.0066 51.3925 88.522 49.9254C92.4939 48.6348 96.7724 48.6348 100.744 49.9254C105.26 51.3925 109.176 55.3084 117.007 63.14L141.093 87.226Z" fill="#7000FF"/>
</g>
<rect x="4.23299" y="4.73299" width="165.534" height="165.534" rx="82.767" stroke="#A6FC6F" stroke-width="8.46599"/>
<path d="M111.65 60.731C114.271 61.308 116.807 61.801 119.296 62.4382C121.941 63.1114 124.562 63.929 127.183 64.6623C127.555 64.7705 127.7 64.9148 127.7 65.3356C127.688 73.5229 127.772 81.7223 127.664 89.9097C127.543 98.7102 124.766 106.669 119.416 113.666C113.453 121.469 105.651 126.494 96.105 128.779C92.342 129.68 88.5069 129.981 84.6477 129.752C75.4747 129.211 67.3477 125.977 60.3988 119.978C53.2335 113.811 48.7131 106.044 46.8977 96.7385C46.3808 94.0935 46.1764 91.4125 46.1764 88.7195C46.1644 80.9649 46.1764 73.2224 46.1523 65.4678C46.1523 64.9509 46.3207 64.7705 46.7895 64.6263C51.7908 63.0273 56.8883 61.7649 62.0458 60.8271C62.0939 60.8151 62.142 60.8271 62.2622 60.8151C62.2622 61.0195 62.2622 61.2239 62.2622 61.4162C62.2622 71.1425 62.2262 80.8807 62.2863 90.607C62.3223 95.5122 62.9836 100.357 64.6547 105.01C65.9771 108.701 67.9367 111.995 70.8582 114.664C73.5993 117.153 76.8092 118.728 80.4039 119.497C85.4893 120.591 90.5627 120.507 95.552 118.932C101.443 117.081 105.53 113.161 108.151 107.643C109.558 104.697 110.4 101.572 110.928 98.3615C111.518 94.7908 111.662 91.1841 111.662 87.5773C111.662 78.897 111.662 70.2047 111.662 61.5244C111.65 61.296 111.65 61.0796 111.65 60.731Z" fill="white"/>
<path d="M94.0847 78.7657C89.2878 78.7657 84.539 78.7657 79.7661 78.7657C79.7661 67.5848 79.7661 56.4158 79.7661 45.2589C81.2569 44.79 91.2474 44.7539 94.0847 45.2228C94.0847 56.4038 94.0847 67.5848 94.0847 78.7657Z" fill="white"/>
<path d="M368.811 54.7536C368.811 62.3915 364.585 65.9128 358.296 65.9128C352.006 65.9128 347.926 62.4411 347.926 54.7536V29.5586H334.352V55.2496C334.352 71.9884 348.072 78.5599 358.368 78.5599C368.665 78.5599 382.41 71.9884 382.41 55.2496V29.5586H368.835L368.811 54.7536Z" fill="#7000FF"/>
<path d="M322.913 41.2634V29.5586H278.838V41.2634H304.919L277.77 65.9624V77.6672H324.54V65.9624H295.813L322.913 41.2634Z" fill="#7000FF"/>
<path d="M450.331 28.6426C441.735 28.6426 435.251 32.2135 432.046 37.6443C428.767 32.2135 421.676 28.6426 414.294 28.6426C399.796 28.6426 392.244 38.0659 392.244 49.7211V77.6687H405.819V51.705C405.819 46.1253 408.684 41.2401 415.265 41.2401C416.601 41.1657 417.961 41.3641 419.199 41.86C420.462 42.356 421.603 43.1 422.551 44.0671C423.498 45.0342 424.226 46.1997 424.712 47.4893C425.173 48.7788 425.392 50.1427 425.295 51.5066V77.6935H438.869V51.4818C438.869 45.9022 442.099 41.1905 448.607 41.1905C455.115 41.1905 458.248 46.1006 458.248 51.6554V77.6191H471.823V49.7459C471.823 38.0907 464.829 28.6674 450.234 28.6674L450.331 28.6426Z" fill="#7000FF"/>
<path d="M255.282 54.7536C255.282 62.3915 251.056 65.9128 244.815 65.9128C238.574 65.9128 234.398 62.4411 234.398 54.7536V29.5586H220.823V55.2496C220.823 71.9884 234.495 78.5599 244.84 78.5599C255.209 78.5599 268.832 71.9884 268.832 55.2496V29.5586H255.257L255.282 54.7536Z" fill="#7000FF"/>
<path d="M336.585 137.904V106.732H323.156L323.229 114.32C320.315 109.857 315.167 105.74 306.06 105.74C290.373 105.74 282.335 118.214 282.335 130.687C282.044 143.334 291.15 155.882 305.405 155.882C312.981 155.882 319.829 152.411 323.156 146.459C323.933 148.964 325.488 151.146 327.625 152.659C329.737 154.171 332.287 154.915 334.861 154.766H342.632V143.111H340.471C337.8 143.111 336.585 142.094 336.585 137.928V137.904ZM308.902 143.88C301.228 143.88 295.424 138.449 295.424 130.811C295.424 123.173 301.252 117.941 308.902 117.941C316.867 117.941 322.622 123.223 322.622 130.811C322.622 138.375 316.867 143.88 308.902 143.88Z" fill="#7000FF"/>
<path d="M248.652 155.932C232.406 155.932 220.823 148.096 220.823 129.002V91.8042H234.398V111.742C238.283 107.824 243.455 105.914 250.886 105.914C267.084 105.914 276.117 117.222 276.117 130.886C276.117 147.179 263.684 155.932 248.749 155.932H248.652ZM248.506 117.842C240.784 117.842 234.932 123.273 234.932 130.911C234.932 138.549 240.736 143.781 248.506 143.781C256.253 143.781 262.227 138.45 262.227 130.911C262.227 123.372 256.472 117.842 248.506 117.842Z" fill="#7000FF"/>
<path d="M413.227 154.867H426.777V131.284L447.88 154.867H463.908L442.028 130.168L462.208 106.758H446.277L426.753 129.275V91.8794H413.203V154.867H413.227Z" fill="#7000FF"/>
<path d="M352.395 106.758H365.97V115.388H366.723C367.524 113.776 368.69 112.337 370.196 111.073C371.458 110.031 373.158 108.99 375.319 108.072C377.481 107.155 380.249 106.659 383.673 106.659C386.442 106.659 389.016 107.055 391.444 107.849C393.872 108.643 395.961 109.882 397.758 111.569C399.555 113.255 400.939 115.412 401.959 117.991C402.955 120.571 403.465 123.645 403.465 127.241V154.792H389.89V131.159C389.89 127.043 388.797 123.993 386.612 121.984C384.426 119.975 381.512 118.983 377.942 118.983C373.984 118.983 370.997 120.124 368.981 122.406C366.99 124.687 365.946 127.613 365.946 131.159V154.792H352.371V106.758H352.395Z" fill="#7000FF"/>
<defs>
<clipPath id="clip0_148_495">
<rect y="0.5" width="174" height="174" rx="87" fill="white"/>
</clipPath>
</defs>
</svg>
